<?xml version="1.0" encoding="UTF-8" standalone="no"?>
<svg class="panel5" viewBox="0 0 604 604" version="1.1" xmlns="http://www.w3.org/2000/svg" xmlns:xlink="http://www.w3.org/1999/xlink" xmlns:sketch="http://www.bohemiancoding.com/sketch/ns">
    <!-- Generator: Sketch 3.2.2 (9983) - http://www.bohemiancoding.com/sketch -->
    <title>5</title>
    <desc>A colored panel</desc>
    <defs>
        <filter x="-50%" y="-50%" width="200%" height="200%" filterUnits="objectBoundingBox" id="filter-1">
            <feOffset dx="0" dy="2" in="SourceAlpha" result="shadowOffsetOuter1"></feOffset>
            <feGaussianBlur stdDeviation="1" in="shadowOffsetOuter1" result="shadowBlurOuter1"></feGaussianBlur>
            <feColorMatrix values="0 0 0 0 0   0 0 0 0 0   0 0 0 0 0  0 0 0 0.14 0" in="shadowBlurOuter1" type="matrix" result="shadowMatrixOuter1"></feColorMatrix>
            <feMerge>
                <feMergeNode in="shadowMatrixOuter1"></feMergeNode>
                <feMergeNode in="SourceGraphic"></feMergeNode>
            </feMerge>
        </filter>
    </defs>
    <g id="Page-1" stroke="none" stroke-width="1" fill="none" fill-rule="evenodd" sketch:type="MSPage">
        <path d="M2,600 L602,600 L602,0 L2,0 L2,600 Z M52,106 L96,106 L96,496 L52,496 L52,106 Z M103,506 L493,506 L493,550 L103,550 L103,506 Z M244,300 C244,267.967 269.967,242 302,242 C334.033,242 360,267.967 360,300 C360,332.033 334.033,358 302,358 C269.967,358 244,332.033 244,300 L244,300 Z M108,50 L498,50 L498,94 L108,94 L108,50 Z M508,106 L552,106 L552,496 L508,496 L508,106 Z" id="5" fill="#F69231" filter="url(#filter-1)" sketch:type="MSShapeGroup"></path>
    </g>
</svg>