<svg xmlns="http://www.w3.org/2000/svg" xmlns:xlink="http://www.w3.org/1999/xlink" viewBox="-288 290 21.3 22" enable-background="new -288 290 21.3 22"><style type="text/css">.st0{clip-path:url(#SVGID_2_);} .st1{clip-path:url(#SVGID_4_);} .st2{clip-path:url(#SVGID_6_);fill:#FFFFFF;}</style><defs><ellipse id="SVGID_1_" cx="-277.3" cy="301" rx="10.4" ry="11"/></defs><clipPath id="SVGID_2_"><use xlink:href="#SVGID_1_" overflow="visible"/></clipPath><g class="st0"><defs><path id="SVGID_3_" d="M-277.3 290c-5.8 0-10.4 4.8-10.4 10.7 0 4.7 3 8.7 7.1 10.1.5.1.7-.2.7-.5v-1.8c-2.9.6-3.5-1.4-3.5-1.4-.5-1.2-1.2-1.6-1.2-1.6-.9-.7.1-.6.1-.6 1 .1 1.6 1.1 1.6 1.1.9 1.6 2.4 1.2 3 .9.1-.7.4-1.2.7-1.4-2.3-.3-4.7-1.2-4.7-5.3 0-1.2.4-2.1 1.1-2.9-.1-.3-.5-1.4.1-2.8 0 0 .9-.3 2.9 1.1.8-.2 1.7-.4 2.6-.4.9 0 1.8.1 2.6.4 2-1.4 2.9-1.1 2.9-1.1.6 1.5.2 2.6.1 2.8.7.7 1.1 1.7 1.1 2.9 0 4.1-2.4 5-4.8 5.3.4.3.7 1 .7 2v2.9c0 .3.2.6.7.5 4.1-1.4 7.1-5.4 7.1-10.1-.1-6-4.7-10.8-10.5-10.8"/></defs><use xlink:href="#SVGID_3_" overflow="visible" fill="#fff"/><clipPath id="SVGID_4_"><use xlink:href="#SVGID_3_" overflow="visible"/></clipPath><g class="st1"><defs><path id="SVGID_5_" d="M-287.7 290h21v22h-21z"/></defs><use xlink:href="#SVGID_5_" overflow="visible" fill="#fff"/><clipPath id="SVGID_6_"><use xlink:href="#SVGID_5_" overflow="visible"/></clipPath><path class="st2" d="M-292.7 285h30.8v30.8h-30.8z"/></g></g></svg>